<svg width="601" height="538" viewBox="0 0 601 538" fill="none" xmlns="http://www.w3.org/2000/svg">
<path d="M181.775 209.161C151.777 191.396 141.89 152.717 159.624 122.776C177.384 92.7996 216.047 82.8791 246.041 100.645C275.984 118.385 285.898 157.071 268.139 187.045C250.404 216.991 211.714 226.912 181.77 209.162L181.775 209.161Z" fill="white"/>
<path d="M294.557 110.541V222.362H319.605V280.009C319.605 280.009 195.964 231.593 195.8 231.538C179.998 225.175 157.194 224.634 139.444 236.875C85.3664 275.978 80.319 377.315 96.8448 446.37H281.669L249.07 328.154L191.979 305.964C189.221 304.892 187.857 301.787 188.928 299.036C190 296.269 193.115 294.913 195.857 295.985L339.126 351.672C342.479 352.905 345.963 353.568 349.447 353.568C355.364 353.568 361.249 351.803 366.284 348.371C374.424 342.807 379.297 333.583 379.297 323.72L379.3 110.536L294.557 110.541Z" fill="white"/>
<path d="M446.792 127.443V191.655L512.778 209.937V109.176L446.792 127.443Z" fill="white"/>
<path d="M392.394 126.896H432.987V191.657H392.394V126.896Z" fill="white"/>
</svg>
