<svg width="601" height="538" viewBox="0 0 601 538" fill="none" xmlns="http://www.w3.org/2000/svg">
<path d="M402.976 242.319C450.635 217.379 506.611 236.222 524.893 286.098C531.543 303.831 531.543 323.781 522.123 340.408C486.657 404.694 360.852 425.2 294.358 439.056C270.527 375.326 220.651 257.836 256.118 194.108C265.538 176.928 281.611 166.397 300.451 162.517C353.098 151.434 398.538 188.564 402.972 242.32L402.976 242.319Z" fill="white"/>
<path d="M153.041 355.929C148.055 328.772 165.788 304.389 192.941 302.725C202.918 302.172 212.892 305.495 219.541 312.702C245.587 339.858 236.168 404.694 232.288 439.614C197.375 441.277 132.533 447.927 106.49 420.217C99.84 413.014 97.0702 403.591 97.6234 393.618C100.393 366.461 125.887 349.838 153.043 355.934L153.041 355.929Z" fill="white"/>
<path d="M150.275 145.338C153.601 112.642 182.418 90.4754 214.004 98.2322C225.088 101.002 235.064 108.208 240.604 118.182C260.554 158.082 228.41 228.465 212.34 266.704C172.44 257.284 95.9641 242.32 76.0148 202.974C70.4716 192.445 70.4716 180.251 74.9049 169.724C87.0982 139.245 121.458 128.714 150.274 145.341L150.275 145.338Z" fill="white"/>
</svg>
