<svg width="601" height="538" viewBox="0 0 601 538" fill="none" xmlns="http://www.w3.org/2000/svg">
<path d="M283.661 227.672C247.91 243.759 204.117 241.973 204.117 241.973C204.117 241.97 137.981 296.489 86.1426 278.615C86.1426 278.615 167.474 484.177 276.511 457.365C329.241 435.021 339.072 367.99 336.391 307.215C311.37 289.342 294.388 259.847 283.662 227.672H283.661ZM262.212 272.359C274.724 267.889 288.131 272.359 297.068 282.19C288.131 283.085 278.299 284.871 267.574 288.446C257.742 292.022 247.91 296.489 240.759 300.959C241.654 288.446 249.699 276.826 262.212 272.359ZM153.175 330.454C154.069 317.941 162.111 306.324 175.518 301.854C188.031 297.384 201.437 301.854 210.374 310.79C201.438 311.685 191.606 314.366 180.88 317.046C171.052 321.513 161.22 325.089 153.175 330.454ZM258.637 405.527C232.718 414.463 205.907 408.208 196.076 391.225C210.378 397.481 231.827 397.481 253.276 390.331C274.725 383.18 291.707 369.773 299.749 356.369C302.43 376.032 285.451 396.589 258.637 405.527Z" fill="white"/>
<path d="M391.805 88.2485C391.805 88.2485 310.474 113.273 269.361 78.4172C269.361 78.4172 267.575 299.173 378.398 315.261C490.117 312.577 515.142 93.611 515.142 93.611C469.56 123.997 391.805 88.2494 391.805 88.2494V88.2485ZM312.261 150.809C317.623 139.191 330.134 132.041 343.541 132.936C356.948 133.831 367.671 142.767 372.141 154.385C363.205 151.704 353.373 149.915 342.647 149.024C331.924 148.129 321.201 149.915 312.261 150.809ZM381.081 260.74C353.376 258.954 331.032 242.867 329.243 224.095C339.969 234.821 359.629 242.864 382.867 244.653C405.211 246.439 425.769 240.183 438.28 231.246C432.919 250.015 408.786 262.526 381.08 260.74H381.081ZM433.811 155.278C423.085 154.383 413.253 155.278 403.425 156.173C408.787 144.555 421.298 137.404 434.705 138.299C448.112 139.195 458.835 148.13 463.305 159.748C454.369 157.959 444.537 156.17 433.811 155.278Z" fill="white"/>
</svg>
