<svg width="601" height="538" viewBox="0 0 601 538" fill="none" xmlns="http://www.w3.org/2000/svg">
<path d="M272.877 286.449C272.877 292.202 266.659 296.863 258.99 296.863C251.322 296.863 245.104 292.202 245.104 286.449C245.104 280.698 251.322 276.034 258.99 276.034C266.659 276.034 272.877 280.698 272.877 286.449Z" fill="white"/>
<path d="M196.505 300.337C196.505 306.088 190.289 310.752 182.618 310.752C174.95 310.752 168.734 306.088 168.734 300.337C168.734 294.587 174.95 289.923 182.618 289.923C190.289 289.923 196.505 294.587 196.505 300.337Z" fill="white"/>
<path d="M349.245 286.449C349.245 292.202 343.03 296.863 335.361 296.863C327.69 296.863 321.475 292.202 321.475 286.449C321.475 280.698 327.69 276.034 335.361 276.034C343.03 276.034 349.245 280.698 349.245 286.449Z" fill="white"/>
<path d="M425.618 300.337C425.618 306.088 419.403 310.752 411.731 310.752C404.063 310.752 397.848 306.088 397.848 300.337C397.848 294.587 404.063 289.923 411.731 289.923C419.402 289.923 425.618 294.587 425.618 300.337Z" fill="white"/>
<path d="M383.962 230.501V158.011C383.962 128.244 368.081 100.741 342.304 85.8573C316.527 70.9737 284.766 70.9737 258.989 85.8573C233.212 100.741 217.332 128.244 217.332 158.011V230.501C244.586 223.751 272.568 220.392 300.647 220.497C328.725 220.392 356.708 223.751 383.962 230.501Z" fill="white"/>
<path d="M481.097 459.327L454.457 373.93C450.415 375.844 446.127 377.693 441.57 379.442L467.876 463.493L481.097 459.327Z" fill="white"/>
<path d="M197.648 390.503C214.36 421.74 254.587 442.665 300.646 442.665C346.705 442.665 386.937 421.74 403.652 390.503C369.796 397.701 335.261 401.223 300.646 401.008C266.036 401.223 231.503 397.701 197.648 390.503Z" fill="white"/>
<path d="M137.113 352.409C162.85 370.974 221.209 387.124 300.648 387.124C380.088 387.124 438.445 370.974 464.183 352.409H137.113Z" fill="white"/>
<path d="M159.742 379.404C155.165 377.661 150.896 375.816 146.855 373.898L120.133 459.333L133.372 463.5L159.742 379.404Z" fill="white"/>
<path d="M107.636 335.746C109.016 337.51 111.14 338.535 113.383 338.521H487.891C490.131 338.535 492.253 337.51 493.633 335.746C494.868 334.217 495.324 332.204 494.868 330.295C481.434 275.604 397.947 234.378 300.648 234.378C203.348 234.378 119.855 275.606 106.427 330.28C105.957 332.192 106.404 334.212 107.636 335.746ZM411.735 276.034C418.633 275.613 425.416 277.929 430.617 282.479C435.815 287.027 439.012 293.446 439.508 300.336C439.012 307.225 435.815 313.644 430.617 318.192C425.415 322.742 418.634 325.058 411.735 324.637C404.839 325.058 398.054 322.742 392.856 318.192C387.657 313.644 384.461 307.225 383.964 300.336C384.461 293.446 387.657 287.027 392.856 282.479C398.054 277.929 404.839 275.613 411.735 276.034ZM335.368 262.151C342.263 261.726 349.049 264.042 354.247 268.593C359.445 273.143 362.642 279.559 363.138 286.449C362.642 293.341 359.445 299.758 354.247 304.308C349.048 308.856 342.264 311.172 335.368 310.75C328.47 311.172 321.687 308.856 316.486 304.308C311.287 299.758 308.091 293.342 307.594 286.449C308.091 279.559 311.288 273.143 316.486 268.593C321.687 264.042 328.469 261.726 335.368 262.151ZM258.994 262.151C265.889 261.726 272.674 264.042 277.872 268.593C283.074 273.143 286.267 279.559 286.764 286.449C286.267 293.341 283.074 299.758 277.872 304.308C272.674 308.856 265.889 311.172 258.994 310.75C252.098 311.172 245.313 308.856 240.115 304.308C234.913 299.758 231.72 293.342 231.223 286.449C231.72 279.559 234.913 273.143 240.115 268.593C245.313 264.042 252.098 261.726 258.994 262.151ZM182.619 276.034C189.517 275.613 196.3 277.929 201.501 282.479C206.7 287.027 209.896 293.446 210.393 300.336C209.896 307.225 206.699 313.644 201.501 318.192C196.3 322.742 189.518 325.058 182.619 324.637C175.724 325.058 168.938 322.742 163.74 318.192C158.542 313.644 155.345 307.225 154.849 300.336C155.345 293.446 158.542 287.027 163.74 282.479C168.939 277.929 175.723 275.613 182.619 276.034Z" fill="white"/>
</svg>
