<svg width="601" height="538" viewBox="0 0 601 538" fill="none" xmlns="http://www.w3.org/2000/svg">
<path d="M300.642 77.4165C194.777 77.4165 108.961 163.233 108.961 269.097C108.961 374.961 194.777 460.778 300.642 460.778C406.506 460.778 492.322 374.961 492.322 269.097C492.322 163.233 406.506 77.4165 300.642 77.4165ZM300.642 434.64C209.357 434.64 135.099 360.38 135.099 269.097C135.099 177.814 209.358 103.555 300.642 103.555C391.925 103.555 466.184 177.814 466.184 269.097C466.184 360.38 391.925 434.64 300.642 434.64Z" fill="white"/>
<path d="M300.642 120.98C218.97 120.98 152.525 187.425 152.525 269.097C152.525 350.77 218.97 417.214 300.642 417.214C382.315 417.214 448.759 350.77 448.759 269.097C448.759 187.425 382.315 120.98 300.642 120.98ZM291.93 147.119C291.93 142.308 295.829 138.406 300.642 138.406C305.456 138.406 309.355 142.308 309.355 147.119V173.257C309.355 178.067 305.456 181.97 300.642 181.97C295.829 181.97 291.93 178.067 291.93 173.257V147.119ZM204.802 277.81H178.664C173.85 277.81 169.951 273.907 169.951 269.097C169.951 264.287 173.85 260.384 178.664 260.384H204.802C209.615 260.384 213.515 264.287 213.515 269.097C213.515 273.907 209.615 277.81 204.802 277.81ZM309.355 391.076C309.355 395.886 305.456 399.789 300.642 399.789C295.829 399.789 291.93 395.886 291.93 391.076V364.938C291.93 360.127 295.829 356.225 300.642 356.225C305.456 356.225 309.355 360.127 309.355 364.938V391.076ZM320.311 306.23L224.62 356.886C223.336 357.564 221.929 357.901 220.545 357.901C218.293 357.901 216.063 357.022 214.383 355.35C211.68 352.646 211.058 348.491 212.844 345.113L263.493 249.439C264.08 248.327 264.803 247.316 265.483 246.269L323.461 304.247C322.421 304.921 321.413 305.647 320.307 306.231L320.311 306.23ZM335.788 291.923L277.81 233.945C278.85 233.267 279.858 232.545 280.97 231.955L376.661 181.299C380.029 179.513 384.188 180.132 386.897 182.838C389.607 185.542 390.223 189.697 388.437 193.075L337.788 288.749C337.201 289.861 336.478 290.872 335.798 291.919L335.788 291.923ZM422.617 277.807H396.478C391.665 277.807 387.766 273.904 387.766 269.094C387.766 264.284 391.665 260.381 396.478 260.381H422.617C427.43 260.381 431.329 264.284 431.329 269.094C431.329 273.904 427.43 277.807 422.617 277.807Z" fill="white"/>
</svg>
