<svg width="601" height="538" viewBox="0 0 601 538" fill="none" xmlns="http://www.w3.org/2000/svg">
<path d="M274.868 152.812C274.868 192.425 242.757 224.539 203.144 224.539C163.532 224.539 131.418 192.425 131.418 152.812C131.418 113.2 163.532 81.0889 203.144 81.0889C242.757 81.0889 274.868 113.2 274.868 152.812Z" fill="white"/>
<path d="M418.319 152.812C418.319 192.425 386.208 224.539 346.596 224.539C306.983 224.539 274.869 192.425 274.869 152.812C274.869 113.2 306.983 81.0889 346.596 81.0889C386.208 81.0889 418.319 113.2 418.319 152.812Z" fill="white"/>
<path d="M409.623 290.503V224.54H140.111V402.765H255.919L212.713 445.971C210.166 448.518 210.166 452.648 212.713 455.195C215.26 457.739 219.387 457.739 221.934 455.195L273.833 403.296L325.732 455.195C328.279 457.742 332.406 457.742 334.953 455.195C337.5 452.648 337.5 448.518 334.953 445.971L291.748 402.765L409.62 402.762V319.906L487.866 372.83V237.577L409.623 290.503ZM248.786 367.987H174.885V324.518H248.782L248.786 367.987Z" fill="white"/>
</svg>
