<svg width="601" height="538" viewBox="0 0 601 538" fill="none" xmlns="http://www.w3.org/2000/svg">
<path d="M176.018 153.893H166.395L156.775 254.639L171.913 297.955L193.255 370.668L195.99 402.995L180.852 438.354L190.472 476.638L219.381 398.894L224.9 297.955L181.533 241.16L176.018 153.893Z" fill="white"/>
<path d="M427.322 297.962L444.511 254.646L433.573 153.899H422.683L416.432 241.164L367.206 297.959L373.457 398.898L406.274 476.642L417.212 438.358L400.024 402.999L403.147 370.673L427.322 297.962Z" fill="white"/>
<path d="M398.309 217.822L401.729 153.75L405.881 123.474L333.604 61.5522L259.276 66.386L198.039 117.956L193.887 221.537L229.681 290.002L252.388 315.445L249.653 364.279L235.881 406.276L229.678 435.872L342.528 433.136L359.036 369.75L341.847 316.177L398.309 217.822ZM256.986 207.275L227.391 215.331L209.224 192.478L227.391 178.999L256.986 183.052V207.275ZM300.69 240.236H311.433V255.718H300.69V240.236ZM277.152 240.236L280.521 255.718H270.41L263.672 240.236H277.152ZM299.371 367.99L284.234 349.725L270.414 297.617L284.234 281.988L298.006 287.214L312.119 318.467L315.488 358.66L299.371 367.99ZM318.856 207.962L326.912 183.057L354.505 179.003L363.93 206.596L338.341 222.078L318.856 207.962Z" fill="white"/>
</svg>
