<svg width="184" height="45" viewBox="0 0 184 45" fill="none" xmlns="http://www.w3.org/2000/svg">
<path d="M0.891205 12.9541H7.15442V19.2173H0.891205V12.9541Z" fill="white"/>
<path d="M0.891205 0.427734H7.15442V6.69095H0.891205V0.427734Z" fill="white"/>
<path d="M0.891205 38.0071H7.15442V44.2703H0.891205V38.0071Z" fill="white"/>
<path d="M0.891205 25.4807H7.15442V31.7439H0.891205V25.4807Z" fill="white"/>
<path d="M13.4176 25.4807H32.2073V44.2703H13.4176V25.4807Z" fill="white"/>
<path d="M38.4705 12.9541H44.7337V19.2173H38.4705V12.9541Z" fill="white"/>
<path d="M38.4705 0.427734H44.7337V6.69095H38.4705V0.427734Z" fill="white"/>
<path d="M38.4705 25.4807H44.7337V31.7439H38.4705V25.4807Z" fill="white"/>
<path d="M13.4176 0.427734H32.2073V19.2174H13.4176V0.427734Z" fill="white"/>
<path d="M38.4705 38.0071H44.7337V44.2703H38.4705V38.0071Z" fill="white"/>
<path d="M57.9243 0.399902H77.2446V9.17942H69.3322V17.4983H76.3775V25.8442H69.3322V44.2704H57.9243V0.399902Z" fill="white"/>
<path d="M91.4436 0.399902V44.2704H80.0357V0.399902H91.4436Z" fill="white"/>
<path d="M107.431 0.399902V35.4909H114.368V44.2704H96.023V0.399902H107.431Z" fill="white"/>
<path d="M152.358 0.399902V44.2704H142.386V14.6531L138.403 44.2704H131.331L127.131 15.3305V44.2704H117.159V0.399902H131.927C132.36 3.03737 132.821 6.14452 133.309 9.72136L134.881 20.8854L137.482 0.399902H152.358Z" fill="white"/>
<path d="M176.637 0.399902L183.168 44.2704H171.489L170.92 36.3851H166.828L166.151 44.2704H154.336L160.135 0.399902H176.637ZM170.595 28.6082C170.017 23.6403 169.439 17.5073 168.86 10.2091C167.704 18.5912 166.982 24.7242 166.693 28.6082H170.595Z" fill="white"/>
</svg>
