<svg width="184" height="45" viewBox="0 0 184 45" fill="none" xmlns="http://www.w3.org/2000/svg">
<path d="M0.891205 12.7722H7.15442V19.0354H0.891205V12.7722Z" fill="black"/>
<path d="M0.891205 0.24585H7.15442V6.50906H0.891205V0.24585Z" fill="black"/>
<path d="M0.891205 37.8252H7.15442V44.0884H0.891205V37.8252Z" fill="black"/>
<path d="M0.891205 25.2988H7.15442V31.562H0.891205V25.2988Z" fill="black"/>
<path d="M13.4176 25.2988H32.2073V44.0885H13.4176V25.2988Z" fill="black"/>
<path d="M38.4705 12.7722H44.7337V19.0354H38.4705V12.7722Z" fill="black"/>
<path d="M38.4705 0.24585H44.7337V6.50906H38.4705V0.24585Z" fill="black"/>
<path d="M38.4705 25.2988H44.7337V31.562H38.4705V25.2988Z" fill="black"/>
<path d="M13.4176 0.24585H32.2073V19.0355H13.4176V0.24585Z" fill="black"/>
<path d="M38.4705 37.8252H44.7337V44.0884H38.4705V37.8252Z" fill="black"/>
<path d="M57.9243 0.218018H77.2446V8.99753H69.3322V17.3164H76.3775V25.6623H69.3322V44.0885H57.9243V0.218018Z" fill="black"/>
<path d="M91.4436 0.218018V44.0885H80.0357V0.218018H91.4436Z" fill="black"/>
<path d="M107.431 0.218018V35.309H114.368V44.0885H96.023V0.218018H107.431Z" fill="black"/>
<path d="M152.358 0.218018V44.0885H142.386V14.4712L138.403 44.0885H131.331L127.131 15.1486V44.0885H117.159V0.218018H131.927C132.36 2.85548 132.821 5.96264 133.309 9.53948L134.881 20.7035L137.482 0.218018H152.358Z" fill="black"/>
<path d="M176.637 0.218018L183.168 44.0885H171.489L170.92 36.2032H166.828L166.151 44.0885H154.336L160.135 0.218018H176.637ZM170.595 28.4263C170.017 23.4584 169.439 17.3254 168.86 10.0272C167.704 18.4093 166.982 24.5423 166.693 28.4263H170.595Z" fill="black"/>
</svg>
